<svg width="28" height="28" viewBox="0 0 28 28" fill="none" xmlns="http://www.w3.org/2000/svg">
<path d="M10.75 20.8824H17.25M9.125 7.11765L7.5 1M18.875 7.11765L20.5 1M5.875 7.11765H22.125C22.987 7.11765 23.8136 7.43992 24.4231 8.01356C25.0326 8.5872 25.375 9.36522 25.375 10.1765V11.7059L27 13.2353V17.8235L25.375 19.3529V23.9412C25.375 24.7524 25.0326 25.5305 24.4231 26.1041C23.8136 26.6777 22.987 27 22.125 27H5.875C5.01305 27 4.1864 26.6777 3.5769 26.1041C2.96741 25.5305 2.625 24.7524 2.625 23.9412V19.3529L1 17.8235V13.2353L2.625 11.7059V10.1765C2.625 9.36522 2.96741 8.5872 3.5769 8.01356C4.1864 7.43992 5.01305 7.11765 5.875 7.11765ZM9.125 14C9.125 14.4223 8.76123 14.7647 8.3125 14.7647C7.86377 14.7647 7.5 14.4223 7.5 14C7.5 13.5777 7.86377 13.2353 8.3125 13.2353C8.76123 13.2353 9.125 13.5777 9.125 14ZM20.5 14C20.5 14.4223 20.1362 14.7647 19.6875 14.7647C19.2388 14.7647 18.875 14.4223 18.875 14C18.875 13.5777 19.2388 13.2353 19.6875 13.2353C20.1362 13.2353 20.5 13.5777 20.5 14Z" stroke="#676767" stroke-width="2" stroke-linecap="round" stroke-linejoin="round"/>
</svg>
