<svg width="20" height="18" viewBox="0 0 20 18" fill="none" xmlns="http://www.w3.org/2000/svg">
<path d="M9.99933 0C10.4218 0.000297849 10.838 0.105096 11.2126 0.305495C11.5871 0.505894 11.9089 0.795973 12.1507 1.1511L12.2456 1.2987L19.6489 13.9653C19.8708 14.3595 19.9914 14.8049 19.9996 15.2599C20.0077 15.7149 19.9031 16.1646 19.6955 16.5669C19.488 16.9692 19.1842 17.3109 18.8127 17.5601C18.4412 17.8094 18.0141 17.9579 17.5713 17.9919L17.3957 18H2.59419C2.15091 17.9946 1.71618 17.8742 1.33054 17.6501C0.944906 17.426 0.620913 17.1054 0.388768 16.7184C0.156624 16.3313 0.0238878 15.8902 0.00293472 15.4364C-0.0180184 14.9825 0.0734938 14.5306 0.26894 14.1228L0.357629 13.9527L7.75575 1.2942C7.98975 0.899113 8.31911 0.572479 8.71209 0.345793C9.10506 0.119107 9.54839 1.49784e-05 9.99933 0ZM10.0608 12.6L9.94928 12.6063C9.73586 12.6323 9.53915 12.7377 9.39643 12.9024C9.25371 13.0671 9.17488 13.2797 9.17488 13.5C9.17488 13.7203 9.25371 13.9329 9.39643 14.0976C9.53915 14.2623 9.73586 14.3677 9.94928 14.3937L10.052 14.4L10.1635 14.3937C10.377 14.3677 10.5737 14.2623 10.7164 14.0976C10.8591 13.9329 10.9379 13.7203 10.9379 13.5C10.9379 13.2797 10.8591 13.0671 10.7164 12.9024C10.5737 12.7377 10.377 12.6323 10.1635 12.6063L10.0608 12.6ZM10.052 5.4C9.83694 5.40003 9.62935 5.48096 9.46863 5.62744C9.3079 5.77393 9.20522 5.97578 9.18005 6.1947L9.17391 6.3V9.9L9.18005 10.0053C9.20544 10.224 9.30822 10.4257 9.46892 10.5719C9.62963 10.7182 9.83709 10.799 10.052 10.799C10.267 10.799 10.4744 10.7182 10.6351 10.5719C10.7958 10.4257 10.8986 10.224 10.924 10.0053L10.9301 9.9V6.3L10.924 6.1947C10.8988 5.97578 10.7961 5.77393 10.6354 5.62744C10.4747 5.48096 10.2671 5.40003 10.052 5.4Z" fill="#DC7272"/>
</svg>
