<svg width="30" height="30" viewBox="0 0 30 30" fill="none" xmlns="http://www.w3.org/2000/svg">
<path d="M11.0526 6.16494e-08C11.3357 -7.90341e-05 11.6136 0.0759535 11.8572 0.220138C12.1008 0.364322 12.3012 0.571354 12.4374 0.81956L12.5179 0.993262L15.6758 8.88883C15.803 9.20648 15.8236 9.55686 15.7344 9.88722C15.6453 10.2176 15.4513 10.51 15.1816 10.7206L15.0237 10.828L12.3805 12.4134L12.48 12.5761C13.738 14.5736 15.4279 16.2637 17.4253 17.5218L17.5863 17.6197L19.1732 14.9795C19.349 14.6859 19.6155 14.4574 19.9324 14.3284C20.2494 14.1994 20.5997 14.1768 20.9305 14.2641L21.1121 14.3257L29.0068 17.4839C29.2697 17.5888 29.4996 17.7625 29.6723 17.9866C29.8451 18.2108 29.9545 18.4773 29.9889 18.7583L30 18.9494V25.2658C30 27.8824 27.8795 30.0032 25.1684 30C11.6226 29.1773 0.824211 18.3777 7.35901e-09 4.73734C-6.72975e-05 3.52899 0.461566 2.36628 1.29045 1.48711C2.11933 0.607948 3.2528 0.0787859 4.45895 0.00789581L4.73684 6.16494e-08H11.0526Z" fill="white"/>
</svg>
