<svg width="266" height="150" viewBox="0 0 266 150" fill="none" xmlns="http://www.w3.org/2000/svg">
<rect x="31" y="60" width="15" height="70" fill="#E4E4E4"/>
<rect x="66" y="70" width="15" height="60" fill="#B6BBC1"/>
<rect x="101" y="74" width="15" height="56" fill="#E4E4E4"/>
<rect x="136" y="50" width="15" height="80" fill="#B6BBC1"/>
<rect x="171" y="60" width="15" height="70" fill="#E4E4E4"/>
<rect x="206" y="78" width="15" height="53" fill="#B6BBC1"/>
<line x1="16.5" y1="150" x2="16.5" stroke="#676767"/>
<line y1="130.5" x2="266" y2="130.5" stroke="#676767"/>
<path d="M206.935 142.155C207.032 142.155 207.108 142.183 207.165 142.24C207.222 142.297 207.25 142.37 207.25 142.46V143H202.47V142.695C202.47 142.632 202.483 142.567 202.51 142.5C202.537 142.433 202.578 142.372 202.635 142.315L204.93 140.01C205.12 139.817 205.293 139.632 205.45 139.455C205.607 139.275 205.74 139.095 205.85 138.915C205.96 138.735 206.045 138.553 206.105 138.37C206.165 138.183 206.195 137.985 206.195 137.775C206.195 137.565 206.162 137.382 206.095 137.225C206.028 137.065 205.937 136.933 205.82 136.83C205.707 136.727 205.572 136.65 205.415 136.6C205.258 136.547 205.09 136.52 204.91 136.52C204.727 136.52 204.558 136.547 204.405 136.6C204.252 136.653 204.115 136.728 203.995 136.825C203.878 136.918 203.78 137.03 203.7 137.16C203.62 137.29 203.563 137.433 203.53 137.59C203.49 137.707 203.435 137.785 203.365 137.825C203.298 137.862 203.203 137.872 203.08 137.855L202.615 137.775C202.662 137.448 202.752 137.16 202.885 136.91C203.022 136.657 203.192 136.445 203.395 136.275C203.602 136.105 203.837 135.977 204.1 135.89C204.363 135.8 204.648 135.755 204.955 135.755C205.258 135.755 205.542 135.8 205.805 135.89C206.068 135.98 206.297 136.112 206.49 136.285C206.683 136.455 206.835 136.663 206.945 136.91C207.055 137.157 207.11 137.437 207.11 137.75C207.11 138.017 207.07 138.265 206.99 138.495C206.91 138.722 206.802 138.938 206.665 139.145C206.528 139.352 206.37 139.553 206.19 139.75C206.013 139.947 205.825 140.145 205.625 140.345L203.735 142.275C203.868 142.238 204.003 142.21 204.14 142.19C204.277 142.167 204.408 142.155 204.535 142.155H206.935ZM213.321 139.42C213.321 140.047 213.252 140.59 213.116 141.05C212.982 141.507 212.799 141.885 212.566 142.185C212.332 142.485 212.056 142.708 211.736 142.855C211.419 143.002 211.079 143.075 210.716 143.075C210.349 143.075 210.007 143.002 209.691 142.855C209.377 142.708 209.104 142.485 208.871 142.185C208.637 141.885 208.454 141.507 208.321 141.05C208.187 140.59 208.121 140.047 208.121 139.42C208.121 138.793 208.187 138.25 208.321 137.79C208.454 137.33 208.637 136.95 208.871 136.65C209.104 136.347 209.377 136.122 209.691 135.975C210.007 135.828 210.349 135.755 210.716 135.755C211.079 135.755 211.419 135.828 211.736 135.975C212.056 136.122 212.332 136.347 212.566 136.65C212.799 136.95 212.982 137.33 213.116 137.79C213.252 138.25 213.321 138.793 213.321 139.42ZM212.396 139.42C212.396 138.873 212.349 138.415 212.256 138.045C212.166 137.672 212.042 137.372 211.886 137.145C211.732 136.918 211.554 136.757 211.351 136.66C211.147 136.56 210.936 136.51 210.716 136.51C210.496 136.51 210.284 136.56 210.081 136.66C209.877 136.757 209.699 136.918 209.546 137.145C209.392 137.372 209.269 137.672 209.176 138.045C209.086 138.415 209.041 138.873 209.041 139.42C209.041 139.967 209.086 140.425 209.176 140.795C209.269 141.165 209.392 141.463 209.546 141.69C209.699 141.917 209.877 142.08 210.081 142.18C210.284 142.277 210.496 142.325 210.716 142.325C210.936 142.325 211.147 142.277 211.351 142.18C211.554 142.08 211.732 141.917 211.886 141.69C212.042 141.463 212.166 141.165 212.256 140.795C212.349 140.425 212.396 139.967 212.396 139.42ZM218.577 142.155C218.673 142.155 218.75 142.183 218.807 142.24C218.863 142.297 218.892 142.37 218.892 142.46V143H214.112V142.695C214.112 142.632 214.125 142.567 214.152 142.5C214.178 142.433 214.22 142.372 214.277 142.315L216.572 140.01C216.762 139.817 216.935 139.632 217.092 139.455C217.248 139.275 217.382 139.095 217.492 138.915C217.602 138.735 217.687 138.553 217.747 138.37C217.807 138.183 217.837 137.985 217.837 137.775C217.837 137.565 217.803 137.382 217.737 137.225C217.67 137.065 217.578 136.933 217.462 136.83C217.348 136.727 217.213 136.65 217.057 136.6C216.9 136.547 216.732 136.52 216.552 136.52C216.368 136.52 216.2 136.547 216.047 136.6C215.893 136.653 215.757 136.728 215.637 136.825C215.52 136.918 215.422 137.03 215.342 137.16C215.262 137.29 215.205 137.433 215.172 137.59C215.132 137.707 215.077 137.785 215.007 137.825C214.94 137.862 214.845 137.872 214.722 137.855L214.257 137.775C214.303 137.448 214.393 137.16 214.527 136.91C214.663 136.657 214.833 136.445 215.037 136.275C215.243 136.105 215.478 135.977 215.742 135.89C216.005 135.8 216.29 135.755 216.597 135.755C216.9 135.755 217.183 135.8 217.447 135.89C217.71 135.98 217.938 136.112 218.132 136.285C218.325 136.455 218.477 136.663 218.587 136.91C218.697 137.157 218.752 137.437 218.752 137.75C218.752 138.017 218.712 138.265 218.632 138.495C218.552 138.722 218.443 138.938 218.307 139.145C218.17 139.352 218.012 139.553 217.832 139.75C217.655 139.947 217.467 140.145 217.267 140.345L215.377 142.275C215.51 142.238 215.645 142.21 215.782 142.19C215.918 142.167 216.05 142.155 216.177 142.155H218.577ZM220.112 137.775C220.159 137.448 220.249 137.16 220.382 136.91C220.516 136.657 220.684 136.445 220.887 136.275C221.094 136.105 221.329 135.977 221.592 135.89C221.859 135.8 222.146 135.755 222.452 135.755C222.756 135.755 223.036 135.798 223.292 135.885C223.549 135.972 223.769 136.095 223.952 136.255C224.139 136.415 224.284 136.608 224.387 136.835C224.491 137.062 224.542 137.313 224.542 137.59C224.542 137.817 224.512 138.02 224.452 138.2C224.396 138.377 224.312 138.532 224.202 138.665C224.096 138.798 223.966 138.912 223.812 139.005C223.659 139.098 223.487 139.175 223.297 139.235C223.764 139.355 224.114 139.562 224.347 139.855C224.584 140.145 224.702 140.508 224.702 140.945C224.702 141.275 224.639 141.572 224.512 141.835C224.389 142.098 224.219 142.323 224.002 142.51C223.786 142.693 223.532 142.835 223.242 142.935C222.956 143.032 222.647 143.08 222.317 143.08C221.937 143.08 221.612 143.033 221.342 142.94C221.072 142.843 220.844 142.712 220.657 142.545C220.471 142.378 220.317 142.182 220.197 141.955C220.077 141.725 219.976 141.477 219.892 141.21L220.277 141.05C220.377 141.007 220.474 140.995 220.567 141.015C220.664 141.035 220.734 141.09 220.777 141.18C220.821 141.273 220.874 141.385 220.937 141.515C221.004 141.645 221.094 141.77 221.207 141.89C221.321 142.01 221.464 142.112 221.637 142.195C221.814 142.278 222.037 142.32 222.307 142.32C222.557 142.32 222.776 142.28 222.962 142.2C223.152 142.117 223.309 142.01 223.432 141.88C223.559 141.75 223.654 141.605 223.717 141.445C223.781 141.285 223.812 141.127 223.812 140.97C223.812 140.777 223.787 140.6 223.737 140.44C223.687 140.28 223.594 140.142 223.457 140.025C223.321 139.908 223.132 139.817 222.892 139.75C222.656 139.683 222.351 139.65 221.977 139.65V139.005C222.284 139.002 222.544 138.968 222.757 138.905C222.974 138.842 223.149 138.755 223.282 138.645C223.419 138.535 223.517 138.403 223.577 138.25C223.641 138.097 223.672 137.927 223.672 137.74C223.672 137.533 223.639 137.353 223.572 137.2C223.509 137.047 223.421 136.92 223.307 136.82C223.194 136.72 223.059 136.645 222.902 136.595C222.749 136.545 222.582 136.52 222.402 136.52C222.222 136.52 222.054 136.547 221.897 136.6C221.744 136.653 221.607 136.728 221.487 136.825C221.371 136.918 221.272 137.03 221.192 137.16C221.112 137.29 221.056 137.433 221.022 137.59C220.979 137.707 220.924 137.785 220.857 137.825C220.794 137.862 220.701 137.872 220.577 137.855L220.112 137.775Z" fill="#676767"/>
<path d="M172.935 142.155C173.032 142.155 173.108 142.183 173.165 142.24C173.222 142.297 173.25 142.37 173.25 142.46V143H168.47V142.695C168.47 142.632 168.483 142.567 168.51 142.5C168.537 142.433 168.578 142.372 168.635 142.315L170.93 140.01C171.12 139.817 171.293 139.632 171.45 139.455C171.607 139.275 171.74 139.095 171.85 138.915C171.96 138.735 172.045 138.553 172.105 138.37C172.165 138.183 172.195 137.985 172.195 137.775C172.195 137.565 172.162 137.382 172.095 137.225C172.028 137.065 171.937 136.933 171.82 136.83C171.707 136.727 171.572 136.65 171.415 136.6C171.258 136.547 171.09 136.52 170.91 136.52C170.727 136.52 170.558 136.547 170.405 136.6C170.252 136.653 170.115 136.728 169.995 136.825C169.878 136.918 169.78 137.03 169.7 137.16C169.62 137.29 169.563 137.433 169.53 137.59C169.49 137.707 169.435 137.785 169.365 137.825C169.298 137.862 169.203 137.872 169.08 137.855L168.615 137.775C168.662 137.448 168.752 137.16 168.885 136.91C169.022 136.657 169.192 136.445 169.395 136.275C169.602 136.105 169.837 135.977 170.1 135.89C170.363 135.8 170.648 135.755 170.955 135.755C171.258 135.755 171.542 135.8 171.805 135.89C172.068 135.98 172.297 136.112 172.49 136.285C172.683 136.455 172.835 136.663 172.945 136.91C173.055 137.157 173.11 137.437 173.11 137.75C173.11 138.017 173.07 138.265 172.99 138.495C172.91 138.722 172.802 138.938 172.665 139.145C172.528 139.352 172.37 139.553 172.19 139.75C172.013 139.947 171.825 140.145 171.625 140.345L169.735 142.275C169.868 142.238 170.003 142.21 170.14 142.19C170.277 142.167 170.408 142.155 170.535 142.155H172.935ZM179.321 139.42C179.321 140.047 179.252 140.59 179.116 141.05C178.982 141.507 178.799 141.885 178.566 142.185C178.332 142.485 178.056 142.708 177.736 142.855C177.419 143.002 177.079 143.075 176.716 143.075C176.349 143.075 176.007 143.002 175.691 142.855C175.377 142.708 175.104 142.485 174.871 142.185C174.637 141.885 174.454 141.507 174.321 141.05C174.187 140.59 174.121 140.047 174.121 139.42C174.121 138.793 174.187 138.25 174.321 137.79C174.454 137.33 174.637 136.95 174.871 136.65C175.104 136.347 175.377 136.122 175.691 135.975C176.007 135.828 176.349 135.755 176.716 135.755C177.079 135.755 177.419 135.828 177.736 135.975C178.056 136.122 178.332 136.347 178.566 136.65C178.799 136.95 178.982 137.33 179.116 137.79C179.252 138.25 179.321 138.793 179.321 139.42ZM178.396 139.42C178.396 138.873 178.349 138.415 178.256 138.045C178.166 137.672 178.042 137.372 177.886 137.145C177.732 136.918 177.554 136.757 177.351 136.66C177.147 136.56 176.936 136.51 176.716 136.51C176.496 136.51 176.284 136.56 176.081 136.66C175.877 136.757 175.699 136.918 175.546 137.145C175.392 137.372 175.269 137.672 175.176 138.045C175.086 138.415 175.041 138.873 175.041 139.42C175.041 139.967 175.086 140.425 175.176 140.795C175.269 141.165 175.392 141.463 175.546 141.69C175.699 141.917 175.877 142.08 176.081 142.18C176.284 142.277 176.496 142.325 176.716 142.325C176.936 142.325 177.147 142.277 177.351 142.18C177.554 142.08 177.732 141.917 177.886 141.69C178.042 141.463 178.166 141.165 178.256 140.795C178.349 140.425 178.396 139.967 178.396 139.42ZM184.577 142.155C184.673 142.155 184.75 142.183 184.807 142.24C184.863 142.297 184.892 142.37 184.892 142.46V143H180.112V142.695C180.112 142.632 180.125 142.567 180.152 142.5C180.178 142.433 180.22 142.372 180.277 142.315L182.572 140.01C182.762 139.817 182.935 139.632 183.092 139.455C183.248 139.275 183.382 139.095 183.492 138.915C183.602 138.735 183.687 138.553 183.747 138.37C183.807 138.183 183.837 137.985 183.837 137.775C183.837 137.565 183.803 137.382 183.737 137.225C183.67 137.065 183.578 136.933 183.462 136.83C183.348 136.727 183.213 136.65 183.057 136.6C182.9 136.547 182.732 136.52 182.552 136.52C182.368 136.52 182.2 136.547 182.047 136.6C181.893 136.653 181.757 136.728 181.637 136.825C181.52 136.918 181.422 137.03 181.342 137.16C181.262 137.29 181.205 137.433 181.172 137.59C181.132 137.707 181.077 137.785 181.007 137.825C180.94 137.862 180.845 137.872 180.722 137.855L180.257 137.775C180.303 137.448 180.393 137.16 180.527 136.91C180.663 136.657 180.833 136.445 181.037 136.275C181.243 136.105 181.478 135.977 181.742 135.89C182.005 135.8 182.29 135.755 182.597 135.755C182.9 135.755 183.183 135.8 183.447 135.89C183.71 135.98 183.938 136.112 184.132 136.285C184.325 136.455 184.477 136.663 184.587 136.91C184.697 137.157 184.752 137.437 184.752 137.75C184.752 138.017 184.712 138.265 184.632 138.495C184.552 138.722 184.443 138.938 184.307 139.145C184.17 139.352 184.012 139.553 183.832 139.75C183.655 139.947 183.467 140.145 183.267 140.345L181.377 142.275C181.51 142.238 181.645 142.21 181.782 142.19C181.918 142.167 182.05 142.155 182.177 142.155H184.577ZM190.397 142.155C190.494 142.155 190.571 142.183 190.627 142.24C190.684 142.297 190.712 142.37 190.712 142.46V143H185.932V142.695C185.932 142.632 185.946 142.567 185.972 142.5C185.999 142.433 186.041 142.372 186.097 142.315L188.392 140.01C188.582 139.817 188.756 139.632 188.912 139.455C189.069 139.275 189.202 139.095 189.312 138.915C189.422 138.735 189.507 138.553 189.567 138.37C189.627 138.183 189.657 137.985 189.657 137.775C189.657 137.565 189.624 137.382 189.557 137.225C189.491 137.065 189.399 136.933 189.282 136.83C189.169 136.727 189.034 136.65 188.877 136.6C188.721 136.547 188.552 136.52 188.372 136.52C188.189 136.52 188.021 136.547 187.867 136.6C187.714 136.653 187.577 136.728 187.457 136.825C187.341 136.918 187.242 137.03 187.162 137.16C187.082 137.29 187.026 137.433 186.992 137.59C186.952 137.707 186.897 137.785 186.827 137.825C186.761 137.862 186.666 137.872 186.542 137.855L186.077 137.775C186.124 137.448 186.214 137.16 186.347 136.91C186.484 136.657 186.654 136.445 186.857 136.275C187.064 136.105 187.299 135.977 187.562 135.89C187.826 135.8 188.111 135.755 188.417 135.755C188.721 135.755 189.004 135.8 189.267 135.89C189.531 135.98 189.759 136.112 189.952 136.285C190.146 136.455 190.297 136.663 190.407 136.91C190.517 137.157 190.572 137.437 190.572 137.75C190.572 138.017 190.532 138.265 190.452 138.495C190.372 138.722 190.264 138.938 190.127 139.145C189.991 139.352 189.832 139.553 189.652 139.75C189.476 139.947 189.287 140.145 189.087 140.345L187.197 142.275C187.331 142.238 187.466 142.21 187.602 142.19C187.739 142.167 187.871 142.155 187.997 142.155H190.397Z" fill="#676767"/>
<path d="M137.935 142.155C138.032 142.155 138.108 142.183 138.165 142.24C138.222 142.297 138.25 142.37 138.25 142.46V143H133.47V142.695C133.47 142.632 133.483 142.567 133.51 142.5C133.537 142.433 133.578 142.372 133.635 142.315L135.93 140.01C136.12 139.817 136.293 139.632 136.45 139.455C136.607 139.275 136.74 139.095 136.85 138.915C136.96 138.735 137.045 138.553 137.105 138.37C137.165 138.183 137.195 137.985 137.195 137.775C137.195 137.565 137.162 137.382 137.095 137.225C137.028 137.065 136.937 136.933 136.82 136.83C136.707 136.727 136.572 136.65 136.415 136.6C136.258 136.547 136.09 136.52 135.91 136.52C135.727 136.52 135.558 136.547 135.405 136.6C135.252 136.653 135.115 136.728 134.995 136.825C134.878 136.918 134.78 137.03 134.7 137.16C134.62 137.29 134.563 137.433 134.53 137.59C134.49 137.707 134.435 137.785 134.365 137.825C134.298 137.862 134.203 137.872 134.08 137.855L133.615 137.775C133.662 137.448 133.752 137.16 133.885 136.91C134.022 136.657 134.192 136.445 134.395 136.275C134.602 136.105 134.837 135.977 135.1 135.89C135.363 135.8 135.648 135.755 135.955 135.755C136.258 135.755 136.542 135.8 136.805 135.89C137.068 135.98 137.297 136.112 137.49 136.285C137.683 136.455 137.835 136.663 137.945 136.91C138.055 137.157 138.11 137.437 138.11 137.75C138.11 138.017 138.07 138.265 137.99 138.495C137.91 138.722 137.802 138.938 137.665 139.145C137.528 139.352 137.37 139.553 137.19 139.75C137.013 139.947 136.825 140.145 136.625 140.345L134.735 142.275C134.868 142.238 135.003 142.21 135.14 142.19C135.277 142.167 135.408 142.155 135.535 142.155H137.935ZM144.321 139.42C144.321 140.047 144.252 140.59 144.116 141.05C143.982 141.507 143.799 141.885 143.566 142.185C143.332 142.485 143.056 142.708 142.736 142.855C142.419 143.002 142.079 143.075 141.716 143.075C141.349 143.075 141.007 143.002 140.691 142.855C140.377 142.708 140.104 142.485 139.871 142.185C139.637 141.885 139.454 141.507 139.321 141.05C139.187 140.59 139.121 140.047 139.121 139.42C139.121 138.793 139.187 138.25 139.321 137.79C139.454 137.33 139.637 136.95 139.871 136.65C140.104 136.347 140.377 136.122 140.691 135.975C141.007 135.828 141.349 135.755 141.716 135.755C142.079 135.755 142.419 135.828 142.736 135.975C143.056 136.122 143.332 136.347 143.566 136.65C143.799 136.95 143.982 137.33 144.116 137.79C144.252 138.25 144.321 138.793 144.321 139.42ZM143.396 139.42C143.396 138.873 143.349 138.415 143.256 138.045C143.166 137.672 143.042 137.372 142.886 137.145C142.732 136.918 142.554 136.757 142.351 136.66C142.147 136.56 141.936 136.51 141.716 136.51C141.496 136.51 141.284 136.56 141.081 136.66C140.877 136.757 140.699 136.918 140.546 137.145C140.392 137.372 140.269 137.672 140.176 138.045C140.086 138.415 140.041 138.873 140.041 139.42C140.041 139.967 140.086 140.425 140.176 140.795C140.269 141.165 140.392 141.463 140.546 141.69C140.699 141.917 140.877 142.08 141.081 142.18C141.284 142.277 141.496 142.325 141.716 142.325C141.936 142.325 142.147 142.277 142.351 142.18C142.554 142.08 142.732 141.917 142.886 141.69C143.042 141.463 143.166 141.165 143.256 140.795C143.349 140.425 143.396 139.967 143.396 139.42ZM149.577 142.155C149.673 142.155 149.75 142.183 149.807 142.24C149.863 142.297 149.892 142.37 149.892 142.46V143H145.112V142.695C145.112 142.632 145.125 142.567 145.152 142.5C145.178 142.433 145.22 142.372 145.277 142.315L147.572 140.01C147.762 139.817 147.935 139.632 148.092 139.455C148.248 139.275 148.382 139.095 148.492 138.915C148.602 138.735 148.687 138.553 148.747 138.37C148.807 138.183 148.837 137.985 148.837 137.775C148.837 137.565 148.803 137.382 148.737 137.225C148.67 137.065 148.578 136.933 148.462 136.83C148.348 136.727 148.213 136.65 148.057 136.6C147.9 136.547 147.732 136.52 147.552 136.52C147.368 136.52 147.2 136.547 147.047 136.6C146.893 136.653 146.757 136.728 146.637 136.825C146.52 136.918 146.422 137.03 146.342 137.16C146.262 137.29 146.205 137.433 146.172 137.59C146.132 137.707 146.077 137.785 146.007 137.825C145.94 137.862 145.845 137.872 145.722 137.855L145.257 137.775C145.303 137.448 145.393 137.16 145.527 136.91C145.663 136.657 145.833 136.445 146.037 136.275C146.243 136.105 146.478 135.977 146.742 135.89C147.005 135.8 147.29 135.755 147.597 135.755C147.9 135.755 148.183 135.8 148.447 135.89C148.71 135.98 148.938 136.112 149.132 136.285C149.325 136.455 149.477 136.663 149.587 136.91C149.697 137.157 149.752 137.437 149.752 137.75C149.752 138.017 149.712 138.265 149.632 138.495C149.552 138.722 149.443 138.938 149.307 139.145C149.17 139.352 149.012 139.553 148.832 139.75C148.655 139.947 148.467 140.145 148.267 140.345L146.377 142.275C146.51 142.238 146.645 142.21 146.782 142.19C146.918 142.167 147.05 142.155 147.177 142.155H149.577ZM155.552 142.32V143H151.712V142.32H153.247V137.435C153.247 137.288 153.252 137.14 153.262 136.99L151.987 138.085C151.944 138.122 151.901 138.145 151.857 138.155C151.814 138.162 151.774 138.162 151.737 138.155C151.701 138.148 151.666 138.135 151.632 138.115C151.602 138.095 151.579 138.073 151.562 138.05L151.282 137.665L153.417 135.82H154.142V142.32H155.552Z" fill="#676767"/>
<path d="M102.935 142.155C103.032 142.155 103.108 142.183 103.165 142.24C103.222 142.297 103.25 142.37 103.25 142.46V143H98.47V142.695C98.47 142.632 98.4833 142.567 98.51 142.5C98.5367 142.433 98.5783 142.372 98.635 142.315L100.93 140.01C101.12 139.817 101.293 139.632 101.45 139.455C101.607 139.275 101.74 139.095 101.85 138.915C101.96 138.735 102.045 138.553 102.105 138.37C102.165 138.183 102.195 137.985 102.195 137.775C102.195 137.565 102.162 137.382 102.095 137.225C102.028 137.065 101.937 136.933 101.82 136.83C101.707 136.727 101.572 136.65 101.415 136.6C101.258 136.547 101.09 136.52 100.91 136.52C100.727 136.52 100.558 136.547 100.405 136.6C100.252 136.653 100.115 136.728 99.995 136.825C99.8783 136.918 99.78 137.03 99.7 137.16C99.62 137.29 99.5633 137.433 99.53 137.59C99.49 137.707 99.435 137.785 99.365 137.825C99.2983 137.862 99.2033 137.872 99.08 137.855L98.615 137.775C98.6617 137.448 98.7517 137.16 98.885 136.91C99.0217 136.657 99.1917 136.445 99.395 136.275C99.6017 136.105 99.8367 135.977 100.1 135.89C100.363 135.8 100.648 135.755 100.955 135.755C101.258 135.755 101.542 135.8 101.805 135.89C102.068 135.98 102.297 136.112 102.49 136.285C102.683 136.455 102.835 136.663 102.945 136.91C103.055 137.157 103.11 137.437 103.11 137.75C103.11 138.017 103.07 138.265 102.99 138.495C102.91 138.722 102.802 138.938 102.665 139.145C102.528 139.352 102.37 139.553 102.19 139.75C102.013 139.947 101.825 140.145 101.625 140.345L99.735 142.275C99.8683 142.238 100.003 142.21 100.14 142.19C100.277 142.167 100.408 142.155 100.535 142.155H102.935ZM109.321 139.42C109.321 140.047 109.252 140.59 109.116 141.05C108.982 141.507 108.799 141.885 108.566 142.185C108.332 142.485 108.056 142.708 107.736 142.855C107.419 143.002 107.079 143.075 106.716 143.075C106.349 143.075 106.007 143.002 105.691 142.855C105.377 142.708 105.104 142.485 104.871 142.185C104.637 141.885 104.454 141.507 104.321 141.05C104.187 140.59 104.121 140.047 104.121 139.42C104.121 138.793 104.187 138.25 104.321 137.79C104.454 137.33 104.637 136.95 104.871 136.65C105.104 136.347 105.377 136.122 105.691 135.975C106.007 135.828 106.349 135.755 106.716 135.755C107.079 135.755 107.419 135.828 107.736 135.975C108.056 136.122 108.332 136.347 108.566 136.65C108.799 136.95 108.982 137.33 109.116 137.79C109.252 138.25 109.321 138.793 109.321 139.42ZM108.396 139.42C108.396 138.873 108.349 138.415 108.256 138.045C108.166 137.672 108.042 137.372 107.886 137.145C107.732 136.918 107.554 136.757 107.351 136.66C107.147 136.56 106.936 136.51 106.716 136.51C106.496 136.51 106.284 136.56 106.081 136.66C105.877 136.757 105.699 136.918 105.546 137.145C105.392 137.372 105.269 137.672 105.176 138.045C105.086 138.415 105.041 138.873 105.041 139.42C105.041 139.967 105.086 140.425 105.176 140.795C105.269 141.165 105.392 141.463 105.546 141.69C105.699 141.917 105.877 142.08 106.081 142.18C106.284 142.277 106.496 142.325 106.716 142.325C106.936 142.325 107.147 142.277 107.351 142.18C107.554 142.08 107.732 141.917 107.886 141.69C108.042 141.463 108.166 141.165 108.256 140.795C108.349 140.425 108.396 139.967 108.396 139.42ZM114.577 142.155C114.673 142.155 114.75 142.183 114.807 142.24C114.863 142.297 114.892 142.37 114.892 142.46V143H110.112V142.695C110.112 142.632 110.125 142.567 110.152 142.5C110.178 142.433 110.22 142.372 110.277 142.315L112.572 140.01C112.762 139.817 112.935 139.632 113.092 139.455C113.248 139.275 113.382 139.095 113.492 138.915C113.602 138.735 113.687 138.553 113.747 138.37C113.807 138.183 113.837 137.985 113.837 137.775C113.837 137.565 113.803 137.382 113.737 137.225C113.67 137.065 113.578 136.933 113.462 136.83C113.348 136.727 113.213 136.65 113.057 136.6C112.9 136.547 112.732 136.52 112.552 136.52C112.368 136.52 112.2 136.547 112.047 136.6C111.893 136.653 111.757 136.728 111.637 136.825C111.52 136.918 111.422 137.03 111.342 137.16C111.262 137.29 111.205 137.433 111.172 137.59C111.132 137.707 111.077 137.785 111.007 137.825C110.94 137.862 110.845 137.872 110.722 137.855L110.257 137.775C110.303 137.448 110.393 137.16 110.527 136.91C110.663 136.657 110.833 136.445 111.037 136.275C111.243 136.105 111.478 135.977 111.742 135.89C112.005 135.8 112.29 135.755 112.597 135.755C112.9 135.755 113.183 135.8 113.447 135.89C113.71 135.98 113.938 136.112 114.132 136.285C114.325 136.455 114.477 136.663 114.587 136.91C114.697 137.157 114.752 137.437 114.752 137.75C114.752 138.017 114.712 138.265 114.632 138.495C114.552 138.722 114.443 138.938 114.307 139.145C114.17 139.352 114.012 139.553 113.832 139.75C113.655 139.947 113.467 140.145 113.267 140.345L111.377 142.275C111.51 142.238 111.645 142.21 111.782 142.19C111.918 142.167 112.05 142.155 112.177 142.155H114.577ZM120.962 139.42C120.962 140.047 120.894 140.59 120.757 141.05C120.624 141.507 120.441 141.885 120.207 142.185C119.974 142.485 119.697 142.708 119.377 142.855C119.061 143.002 118.721 143.075 118.357 143.075C117.991 143.075 117.649 143.002 117.332 142.855C117.019 142.708 116.746 142.485 116.512 142.185C116.279 141.885 116.096 141.507 115.962 141.05C115.829 140.59 115.762 140.047 115.762 139.42C115.762 138.793 115.829 138.25 115.962 137.79C116.096 137.33 116.279 136.95 116.512 136.65C116.746 136.347 117.019 136.122 117.332 135.975C117.649 135.828 117.991 135.755 118.357 135.755C118.721 135.755 119.061 135.828 119.377 135.975C119.697 136.122 119.974 136.347 120.207 136.65C120.441 136.95 120.624 137.33 120.757 137.79C120.894 138.25 120.962 138.793 120.962 139.42ZM120.037 139.42C120.037 138.873 119.991 138.415 119.897 138.045C119.807 137.672 119.684 137.372 119.527 137.145C119.374 136.918 119.196 136.757 118.992 136.66C118.789 136.56 118.577 136.51 118.357 136.51C118.137 136.51 117.926 136.56 117.722 136.66C117.519 136.757 117.341 136.918 117.187 137.145C117.034 137.372 116.911 137.672 116.817 138.045C116.727 138.415 116.682 138.873 116.682 139.42C116.682 139.967 116.727 140.425 116.817 140.795C116.911 141.165 117.034 141.463 117.187 141.69C117.341 141.917 117.519 142.08 117.722 142.18C117.926 142.277 118.137 142.325 118.357 142.325C118.577 142.325 118.789 142.277 118.992 142.18C119.196 142.08 119.374 141.917 119.527 141.69C119.684 141.463 119.807 141.165 119.897 140.795C119.991 140.425 120.037 139.967 120.037 139.42Z" fill="#676767"/>
<path d="M66.935 142.155C67.0317 142.155 67.1083 142.183 67.165 142.24C67.2217 142.297 67.25 142.37 67.25 142.46V143H62.47V142.695C62.47 142.632 62.4833 142.567 62.51 142.5C62.5367 142.433 62.5783 142.372 62.635 142.315L64.93 140.01C65.12 139.817 65.2933 139.632 65.45 139.455C65.6067 139.275 65.74 139.095 65.85 138.915C65.96 138.735 66.045 138.553 66.105 138.37C66.165 138.183 66.195 137.985 66.195 137.775C66.195 137.565 66.1617 137.382 66.095 137.225C66.0283 137.065 65.9367 136.933 65.82 136.83C65.7067 136.727 65.5717 136.65 65.415 136.6C65.2583 136.547 65.09 136.52 64.91 136.52C64.7267 136.52 64.5583 136.547 64.405 136.6C64.2517 136.653 64.115 136.728 63.995 136.825C63.8783 136.918 63.78 137.03 63.7 137.16C63.62 137.29 63.5633 137.433 63.53 137.59C63.49 137.707 63.435 137.785 63.365 137.825C63.2983 137.862 63.2033 137.872 63.08 137.855L62.615 137.775C62.6617 137.448 62.7517 137.16 62.885 136.91C63.0217 136.657 63.1917 136.445 63.395 136.275C63.6017 136.105 63.8367 135.977 64.1 135.89C64.3633 135.8 64.6483 135.755 64.955 135.755C65.2583 135.755 65.5417 135.8 65.805 135.89C66.0683 135.98 66.2967 136.112 66.49 136.285C66.6833 136.455 66.835 136.663 66.945 136.91C67.055 137.157 67.11 137.437 67.11 137.75C67.11 138.017 67.07 138.265 66.99 138.495C66.91 138.722 66.8017 138.938 66.665 139.145C66.5283 139.352 66.37 139.553 66.19 139.75C66.0133 139.947 65.825 140.145 65.625 140.345L63.735 142.275C63.8683 142.238 64.0033 142.21 64.14 142.19C64.2767 142.167 64.4083 142.155 64.535 142.155H66.935ZM73.3208 139.42C73.3208 140.047 73.2524 140.59 73.1158 141.05C72.9824 141.507 72.7991 141.885 72.5658 142.185C72.3324 142.485 72.0558 142.708 71.7358 142.855C71.4191 143.002 71.0791 143.075 70.7158 143.075C70.3491 143.075 70.0074 143.002 69.6908 142.855C69.3774 142.708 69.1041 142.485 68.8708 142.185C68.6374 141.885 68.4541 141.507 68.3208 141.05C68.1874 140.59 68.1208 140.047 68.1208 139.42C68.1208 138.793 68.1874 138.25 68.3208 137.79C68.4541 137.33 68.6374 136.95 68.8708 136.65C69.1041 136.347 69.3774 136.122 69.6908 135.975C70.0074 135.828 70.3491 135.755 70.7158 135.755C71.0791 135.755 71.4191 135.828 71.7358 135.975C72.0558 136.122 72.3324 136.347 72.5658 136.65C72.7991 136.95 72.9824 137.33 73.1158 137.79C73.2524 138.25 73.3208 138.793 73.3208 139.42ZM72.3958 139.42C72.3958 138.873 72.3491 138.415 72.2558 138.045C72.1658 137.672 72.0424 137.372 71.8858 137.145C71.7324 136.918 71.5541 136.757 71.3508 136.66C71.1474 136.56 70.9358 136.51 70.7158 136.51C70.4958 136.51 70.2841 136.56 70.0808 136.66C69.8774 136.757 69.6991 136.918 69.5458 137.145C69.3924 137.372 69.2691 137.672 69.1758 138.045C69.0858 138.415 69.0408 138.873 69.0408 139.42C69.0408 139.967 69.0858 140.425 69.1758 140.795C69.2691 141.165 69.3924 141.463 69.5458 141.69C69.6991 141.917 69.8774 142.08 70.0808 142.18C70.2841 142.277 70.4958 142.325 70.7158 142.325C70.9358 142.325 71.1474 142.277 71.3508 142.18C71.5541 142.08 71.7324 141.917 71.8858 141.69C72.0424 141.463 72.1658 141.165 72.2558 140.795C72.3491 140.425 72.3958 139.967 72.3958 139.42ZM78.7316 142.32V143H74.8916V142.32H76.4266V137.435C76.4266 137.288 76.4316 137.14 76.4416 136.99L75.1666 138.085C75.1232 138.122 75.0799 138.145 75.0366 138.155C74.9932 138.162 74.9532 138.162 74.9166 138.155C74.8799 138.148 74.8449 138.135 74.8116 138.115C74.7816 138.095 74.7582 138.073 74.7416 138.05L74.4616 137.665L76.5966 135.82H77.3216V142.32H78.7316ZM80.8773 137.94C80.8773 138.167 80.909 138.37 80.9723 138.55C81.039 138.727 81.1323 138.877 81.2523 139C81.3757 139.123 81.524 139.217 81.6973 139.28C81.874 139.343 82.0707 139.375 82.2873 139.375C82.5273 139.375 82.739 139.337 82.9223 139.26C83.109 139.18 83.2657 139.075 83.3923 138.945C83.519 138.815 83.6157 138.665 83.6823 138.495C83.749 138.325 83.7823 138.148 83.7823 137.965C83.7823 137.742 83.7457 137.54 83.6723 137.36C83.6023 137.177 83.504 137.022 83.3773 136.895C83.2507 136.768 83.099 136.672 82.9223 136.605C82.749 136.535 82.5573 136.5 82.3473 136.5C82.1273 136.5 81.9273 136.537 81.7473 136.61C81.5673 136.68 81.4123 136.778 81.2823 136.905C81.1523 137.032 81.0523 137.183 80.9823 137.36C80.9123 137.537 80.8773 137.73 80.8773 137.94ZM82.9573 140.145C83.0307 140.048 83.099 139.957 83.1623 139.87C83.2257 139.783 83.2857 139.697 83.3423 139.61C83.159 139.757 82.9523 139.868 82.7223 139.945C82.4923 140.022 82.249 140.06 81.9923 140.06C81.7223 140.06 81.4657 140.015 81.2223 139.925C80.9823 139.835 80.7707 139.703 80.5873 139.53C80.404 139.353 80.2573 139.138 80.1473 138.885C80.0407 138.628 79.9873 138.335 79.9873 138.005C79.9873 137.692 80.0457 137.398 80.1623 137.125C80.279 136.852 80.4423 136.613 80.6523 136.41C80.8623 136.207 81.1123 136.047 81.4023 135.93C81.6923 135.813 82.0107 135.755 82.3573 135.755C82.7007 135.755 83.0123 135.812 83.2923 135.925C83.5723 136.038 83.8123 136.197 84.0123 136.4C84.2123 136.603 84.3657 136.847 84.4723 137.13C84.5823 137.413 84.6373 137.727 84.6373 138.07C84.6373 138.277 84.6173 138.473 84.5773 138.66C84.5407 138.843 84.4857 139.025 84.4123 139.205C84.3423 139.382 84.2557 139.558 84.1523 139.735C84.049 139.908 83.9323 140.087 83.8023 140.27L82.0573 142.79C82.014 142.853 81.9523 142.905 81.8723 142.945C81.7923 142.982 81.7007 143 81.5973 143H80.7773L82.9573 140.145Z" fill="#676767"/>
<path d="M29.935 142.155C30.0317 142.155 30.1083 142.183 30.165 142.24C30.2217 142.297 30.25 142.37 30.25 142.46V143H25.47V142.695C25.47 142.632 25.4833 142.567 25.51 142.5C25.5367 142.433 25.5783 142.372 25.635 142.315L27.93 140.01C28.12 139.817 28.2933 139.632 28.45 139.455C28.6067 139.275 28.74 139.095 28.85 138.915C28.96 138.735 29.045 138.553 29.105 138.37C29.165 138.183 29.195 137.985 29.195 137.775C29.195 137.565 29.1617 137.382 29.095 137.225C29.0283 137.065 28.9367 136.933 28.82 136.83C28.7067 136.727 28.5717 136.65 28.415 136.6C28.2583 136.547 28.09 136.52 27.91 136.52C27.7267 136.52 27.5583 136.547 27.405 136.6C27.2517 136.653 27.115 136.728 26.995 136.825C26.8783 136.918 26.78 137.03 26.7 137.16C26.62 137.29 26.5633 137.433 26.53 137.59C26.49 137.707 26.435 137.785 26.365 137.825C26.2983 137.862 26.2033 137.872 26.08 137.855L25.615 137.775C25.6617 137.448 25.7517 137.16 25.885 136.91C26.0217 136.657 26.1917 136.445 26.395 136.275C26.6017 136.105 26.8367 135.977 27.1 135.89C27.3633 135.8 27.6483 135.755 27.955 135.755C28.2583 135.755 28.5417 135.8 28.805 135.89C29.0683 135.98 29.2967 136.112 29.49 136.285C29.6833 136.455 29.835 136.663 29.945 136.91C30.055 137.157 30.11 137.437 30.11 137.75C30.11 138.017 30.07 138.265 29.99 138.495C29.91 138.722 29.8017 138.938 29.665 139.145C29.5283 139.352 29.37 139.553 29.19 139.75C29.0133 139.947 28.825 140.145 28.625 140.345L26.735 142.275C26.8683 142.238 27.0033 142.21 27.14 142.19C27.2767 142.167 27.4083 142.155 27.535 142.155H29.935ZM36.3208 139.42C36.3208 140.047 36.2524 140.59 36.1158 141.05C35.9824 141.507 35.7991 141.885 35.5658 142.185C35.3324 142.485 35.0558 142.708 34.7358 142.855C34.4191 143.002 34.0791 143.075 33.7158 143.075C33.3491 143.075 33.0074 143.002 32.6908 142.855C32.3774 142.708 32.1041 142.485 31.8708 142.185C31.6374 141.885 31.4541 141.507 31.3208 141.05C31.1874 140.59 31.1208 140.047 31.1208 139.42C31.1208 138.793 31.1874 138.25 31.3208 137.79C31.4541 137.33 31.6374 136.95 31.8708 136.65C32.1041 136.347 32.3774 136.122 32.6908 135.975C33.0074 135.828 33.3491 135.755 33.7158 135.755C34.0791 135.755 34.4191 135.828 34.7358 135.975C35.0558 136.122 35.3324 136.347 35.5658 136.65C35.7991 136.95 35.9824 137.33 36.1158 137.79C36.2524 138.25 36.3208 138.793 36.3208 139.42ZM35.3958 139.42C35.3958 138.873 35.3491 138.415 35.2558 138.045C35.1658 137.672 35.0424 137.372 34.8858 137.145C34.7324 136.918 34.5541 136.757 34.3508 136.66C34.1474 136.56 33.9358 136.51 33.7158 136.51C33.4958 136.51 33.2841 136.56 33.0808 136.66C32.8774 136.757 32.6991 136.918 32.5458 137.145C32.3924 137.372 32.2691 137.672 32.1758 138.045C32.0858 138.415 32.0408 138.873 32.0408 139.42C32.0408 139.967 32.0858 140.425 32.1758 140.795C32.2691 141.165 32.3924 141.463 32.5458 141.69C32.6991 141.917 32.8774 142.08 33.0808 142.18C33.2841 142.277 33.4958 142.325 33.7158 142.325C33.9358 142.325 34.1474 142.277 34.3508 142.18C34.5541 142.08 34.7324 141.917 34.8858 141.69C35.0424 141.463 35.1658 141.165 35.2558 140.795C35.3491 140.425 35.3958 139.967 35.3958 139.42ZM41.7316 142.32V143H37.8916V142.32H39.4266V137.435C39.4266 137.288 39.4316 137.14 39.4416 136.99L38.1666 138.085C38.1232 138.122 38.0799 138.145 38.0366 138.155C37.9932 138.162 37.9532 138.162 37.9166 138.155C37.8799 138.148 37.8449 138.135 37.8116 138.115C37.7816 138.095 37.7582 138.073 37.7416 138.05L37.4616 137.665L39.5966 135.82H40.3216V142.32H41.7316ZM45.3623 142.37C45.5957 142.37 45.804 142.338 45.9873 142.275C46.174 142.208 46.3307 142.117 46.4573 142C46.5873 141.88 46.6857 141.738 46.7523 141.575C46.8223 141.408 46.8573 141.225 46.8573 141.025C46.8573 140.778 46.8157 140.568 46.7323 140.395C46.6523 140.218 46.5423 140.075 46.4023 139.965C46.2657 139.855 46.1073 139.775 45.9273 139.725C45.7473 139.672 45.559 139.645 45.3623 139.645C45.1657 139.645 44.9773 139.672 44.7973 139.725C44.6173 139.775 44.4573 139.855 44.3173 139.965C44.1807 140.075 44.0707 140.218 43.9873 140.395C43.9073 140.568 43.8673 140.778 43.8673 141.025C43.8673 141.225 43.9007 141.408 43.9673 141.575C44.0373 141.738 44.1357 141.88 44.2623 142C44.3923 142.117 44.549 142.208 44.7323 142.275C44.919 142.338 45.129 142.37 45.3623 142.37ZM45.3623 136.445C45.149 136.445 44.9607 136.477 44.7973 136.54C44.6373 136.603 44.5023 136.69 44.3923 136.8C44.2857 136.91 44.204 137.038 44.1473 137.185C44.094 137.332 44.0673 137.488 44.0673 137.655C44.0673 137.818 44.0907 137.977 44.1373 138.13C44.184 138.283 44.259 138.42 44.3623 138.54C44.4657 138.657 44.599 138.752 44.7623 138.825C44.929 138.895 45.129 138.93 45.3623 138.93C45.5957 138.93 45.794 138.895 45.9573 138.825C46.124 138.752 46.259 138.657 46.3623 138.54C46.4657 138.42 46.5407 138.283 46.5873 138.13C46.634 137.977 46.6573 137.818 46.6573 137.655C46.6573 137.488 46.629 137.332 46.5723 137.185C46.519 137.038 46.4373 136.91 46.3273 136.8C46.2207 136.69 46.0857 136.603 45.9223 136.54C45.7623 136.477 45.5757 136.445 45.3623 136.445ZM46.3873 139.265C46.834 139.392 47.1773 139.603 47.4173 139.9C47.6573 140.197 47.7773 140.577 47.7773 141.04C47.7773 141.353 47.7173 141.637 47.5973 141.89C47.4807 142.14 47.3157 142.353 47.1023 142.53C46.8923 142.707 46.639 142.843 46.3423 142.94C46.0457 143.033 45.719 143.08 45.3623 143.08C45.0057 143.08 44.679 143.033 44.3823 142.94C44.0857 142.843 43.8307 142.707 43.6173 142.53C43.404 142.353 43.239 142.14 43.1223 141.89C43.0057 141.637 42.9473 141.353 42.9473 141.04C42.9473 140.577 43.0673 140.197 43.3073 139.9C43.5473 139.603 43.8907 139.392 44.3373 139.265C43.9607 139.125 43.6757 138.917 43.4823 138.64C43.2923 138.36 43.1973 138.027 43.1973 137.64C43.1973 137.377 43.249 137.13 43.3523 136.9C43.4557 136.67 43.6023 136.47 43.7923 136.3C43.9823 136.13 44.209 135.997 44.4723 135.9C44.739 135.803 45.0357 135.755 45.3623 135.755C45.6857 135.755 45.9807 135.803 46.2473 135.9C46.514 135.997 46.7423 136.13 46.9323 136.3C47.1223 136.47 47.269 136.67 47.3723 136.9C47.4757 137.13 47.5273 137.377 47.5273 137.64C47.5273 138.027 47.4307 138.36 47.2373 138.64C47.0473 138.917 46.764 139.125 46.3873 139.265Z" fill="#676767"/>
</svg>
