<svg width="223" height="224" viewBox="0 0 223 224" fill="none" xmlns="http://www.w3.org/2000/svg">
<path d="M65.9554 79.8695H73.6898V98.2054H99.136V79.8695H106.87V126.276H99.136V104.073H73.6898V126.276H65.9554V79.8695Z" fill="#6E77EE"/>
<path d="M90.8044 143.019L112.267 111.281H121.394L101.749 139.652H120.272V130.384H128.084V139.652H132.493V145.519H128.084V156.621H120.272V145.519H90.8044V143.019Z" fill="#6E77EE"/>
<path d="M155.339 126.009C152.787 126.409 149.345 126.609 145.014 126.609C140.708 126.609 136.815 126.098 133.335 125.076C129.88 124.053 126.902 122.542 124.401 120.542C119.039 116.252 116.358 110.274 116.358 102.606C116.358 97.6053 117.737 93.2715 120.496 89.6043C124.234 84.6481 129.97 81.492 137.705 80.1364C140.076 79.7362 142.9 79.5363 146.174 79.5363C149.474 79.5363 152.116 79.6918 154.101 80.003V86.3705C152.297 85.8816 149.5 85.6371 145.71 85.6371C141.946 85.6371 138.749 86.0371 136.119 86.8373C133.489 87.6374 131.311 88.782 129.584 90.271C126.129 93.1825 124.401 97.2943 124.401 102.606C124.401 107.962 126.103 112.207 129.506 115.341C133.193 118.719 138.491 120.408 145.4 120.408C149.448 120.408 152.761 120.142 155.339 119.608V126.009Z" fill="#6E77EE"/>
<path d="M112.708 112.419L118.3 103.517L121.611 105.991L117.752 112.418L112.708 112.419Z" fill="#6E77EE" stroke="#6E77EE" stroke-width="0.9"/>
<path d="M99.6 124.379V131.966L108.4 124.379H99.6Z" fill="#6E77EE" stroke="#6E77EE" stroke-width="0.4"/>
<rect x="0.5" y="0.5" width="222" height="223" rx="19.5" stroke="#6E77EE"/>
</svg>
