<svg width="36" height="36" viewBox="0 0 36 36" fill="none" xmlns="http://www.w3.org/2000/svg">
<path d="M6.98394 30.937C7.45146 29.381 8.4081 28.0171 9.71196 27.0477C11.0158 26.0783 12.5974 25.5551 14.2222 25.5556H21.7777C23.4045 25.555 24.9881 26.0795 26.2929 27.0511C27.5977 28.0228 28.554 29.3896 29.0197 30.9483M1 18C1 20.2325 1.43972 22.4431 2.29405 24.5056C3.14838 26.5682 4.40059 28.4422 5.97918 30.0208C7.55778 31.5994 9.43185 32.8516 11.4944 33.706C13.5569 34.5603 15.7675 35 18 35C20.2325 35 22.4431 34.5603 24.5056 33.706C26.5682 32.8516 28.4422 31.5994 30.0208 30.0208C31.5994 28.4422 32.8516 26.5682 33.706 24.5056C34.5603 22.4431 35 20.2325 35 18C35 15.7675 34.5603 13.5569 33.706 11.4944C32.8516 9.43185 31.5994 7.55778 30.0208 5.97918C28.4422 4.40059 26.5682 3.14838 24.5056 2.29405C22.4431 1.43972 20.2325 1 18 1C15.7675 1 13.5569 1.43972 11.4944 2.29405C9.43185 3.14838 7.55778 4.40059 5.97918 5.97918C4.40059 7.55778 3.14838 9.43185 2.29405 11.4944C1.43972 13.5569 1 15.7675 1 18ZM12.3333 14.2222C12.3333 15.7251 12.9304 17.1665 13.9931 18.2292C15.0558 19.2919 16.4971 19.8889 18 19.8889C19.5029 19.8889 20.9442 19.2919 22.0069 18.2292C23.0696 17.1665 23.6667 15.7251 23.6667 14.2222C23.6667 12.7193 23.0696 11.278 22.0069 10.2153C20.9442 9.15258 19.5029 8.55556 18 8.55556C16.4971 8.55556 15.0558 9.15258 13.9931 10.2153C12.9304 11.278 12.3333 12.7193 12.3333 14.2222Z" stroke="#676767" stroke-width="1.5" stroke-linecap="round" stroke-linejoin="round"/>
</svg>
